<svg xmlns="http://www.w3.org/2000/svg" xmlns:xlink="http://www.w3.org/1999/xlink" class="" app-context="doc-2d" x="0px" y="0px" width="50" height="50" jvs-fullPath="gdrive/icon-dir.svg"><title/><desc/><defs/><g id="jvs-guides" transform="matrix(1 0 0 1 0 0)"/><g id="jvs-content" enable-background="new"><path d="M 39.655029296875 12.930988311767578 L 39.655029296875 9.482725143432617 C 39.655029296875 8.531003952026367 38.88261795043945 7.758592128753662 37.9308967590332 7.758592128753662 C 37.9308967590332 7.758592128753662 16.68269920349121 7.758592128753662 15.517187118530273 7.758592128753662 C 14.250810623168945 7.758592128753662 13.375812530517578 4.310328960418701 12.06892204284668 4.310328960418701 L 2.5861973762512207 4.310328960418701 C 1.6344761848449707 4.310328960418701 0.8620657920837402 5.082740306854248 0.8620657920837402 6.034459590911865 L 0.8620657920837402 9.482725143432617 L 0.8620657920837402 34.482635498046875 L 0.8620657920837402 37.9308967590332 C 0.8620657920837402 38.88261795043945 1.6344761848449707 39.655029296875 2.5861973762512207 39.655029296875 L 36.206764221191406 39.655029296875 C 37.15848922729492 39.655029296875 37.9308967590332 38.88261795043945 37.9308967590332 37.9308967590332" fill="none" stroke="rgb(255,255,255)" stroke-linecap="round" stroke-miterlimit="10" stroke-width="3.4482633932755227" transform="matrix(1 0 0 1 4 2)" selected="true" stroke-opacity="1"/><path d="M 0.8593955039978027 37.813392639160156 L 5.156371116638184 14.609718322753906 C 5.156371116638184 13.660947799682617 5.926389694213867 12.890929222106934 6.8751630783081055 12.890929222106934 L 40.391578674316406 12.890929222106934 C 41.34035110473633 12.890929222106934 42.11036682128906 13.660947799682617 42.11036682128906 14.609718322753906 L 37.813392639160156 37.813392639160156" fill="none" stroke="rgb(255,255,255)" stroke-linecap="round" stroke-miterlimit="10" stroke-width="3.437581056192016" transform="matrix(1 0 0 1 4 2)" stroke-opacity="1"/></g></svg>