<?xml version="1.0" encoding="utf-8"?>
<!-- Generator: Adobe Illustrator 21.0.0, SVG Export Plug-In . SVG Version: 6.00 Build 0)  -->
<svg version="1.1" id="Warstwa_1" xmlns="http://www.w3.org/2000/svg" xmlns:xlink="http://www.w3.org/1999/xlink" x="0px" y="0px"
	 viewBox="0 0 438.6 135.4" style="enable-background:new 0 0 438.6 135.4;" xml:space="preserve">
<style type="text/css">
	.st0{fill-rule:evenodd;clip-rule:evenodd;fill:#005CA9;}
</style>
<g>
	<path class="st0" d="M65.8,0C47.2,0,32,14.6,32,32.5c0,9.3,3.8,17.1,10.6,23.6h0l0.1,0.1l0,0l23.1,22l22.4-21.4
		c6.5-6.2,11.3-14.6,11.3-24.2C99.5,14.6,84.3,0,65.8,0z"/>
	<path class="st0" d="M246.9,82.8V52.1c-14.3,0-29.9,0-44.9,0c-4.9,0-9.5-5.2-9.5-10.7c0-5.9,4.5-10.9,10.7-10.9h43.7
		c0-2.7,0-23.6,0-30.6h-43.8C180.4,0,162,18.6,162,41.4c0,0,0,0,0,0c0,0,0,0,0,0c0,9.9,3.5,19,9.3,26.1c-5.8,7.1-9.3,16.2-9.3,26.1
		c0,0,0,0,0,0c0,0,0,0,0,0c0,22.8,18.5,41.6,41.2,41.6l2.5,0v0c13.8,0,32.6,0,41.3,0v-30.8l-43.8,0c-5.9,0-10.5-4.9-10.6-10.8
		c0-5.5,4.5-10.9,9.5-10.9C207.8,82.8,232.1,82.8,246.9,82.8z"/>
	<path class="st0" d="M345.4,52.1c22.9,0,41.6,18.7,41.6,41.6c0,22.9-18.7,41.6-41.6,41.6c-22.9,0-41.6-18.7-41.6-41.6
		C303.8,70.8,322.5,52.1,345.4,52.1L345.4,52.1z M345.4,82.8c-6,0-10.9,4.9-10.9,10.9c0,6,4.9,10.9,10.9,10.9s10.9-4.9,10.9-10.9
		C356.3,87.7,351.4,82.8,345.4,82.8z"/>
	<path class="st0" d="M294,135.4c-22.8,0-41.3-18.8-41.3-41.6c0-22.8,18.5-41.6,41.3-41.6l4.1,0v30.7H294c-5.5,0-10.7,3.9-10.7,10.9
		c0,5.9,5.2,10.8,10.6,10.9l4.1-0.1v30.8H294z"/>
	<path class="st0" d="M392.8,0h31.1c0,0,0,71.2,0,93.1c0,8.7,4.7,11.5,10.7,11.6h4v30.7h-4c-23.1,0-41.8-18.9-41.8-41.6
		C392.8,62.4,392.8,31.4,392.8,0z"/>
	<path class="st0" d="M97.3,135.4c18.6,0,33.7-14.6,33.7-32.5c0-9.3-3.5-17-10.6-23.6h0l-0.1-0.1l0,0l-23.1-22L74.9,78.6
		c-6.4,6.2-11.3,14.6-11.3,24.2C63.6,120.8,78.7,135.4,97.3,135.4z"/>
	<path class="st0" d="M33.7,135.4c11.4,0,21.5-5.5,27.6-13.9c-3.1-5.6-4.9-11.9-4.9-18.7c0-6.7,1.8-13,4.9-18.6
		c-1.7-2.3-2.1-2.9-4.4-4.9h0l-0.1-0.1l0,0l-23.1-22L11.3,78.6C4.6,84.9,0,93.3,0,102.9C0,120.8,15.2,135.4,33.7,135.4z"/>
</g>
</svg>
